<svg xmlns="http://www.w3.org/2000/svg" width="19.898" height="16.677" viewBox="0 0 19.898 16.677"><defs><style>.a{fill:#fff;}</style></defs><path class="a" d="M9.662,4.436l.043.721-.719-.088A11.631,11.631,0,0,1,2.142,1.654L1.193.7.949,1.4A4.293,4.293,0,0,0,1.84,5.761c.575.618.446.707-.546.339a1.675,1.675,0,0,0-.676-.162,5.335,5.335,0,0,0,.518,1.973,4.671,4.671,0,0,0,1.97,1.884l.7.339-.834.015c-.805,0-.834.015-.748.324a4.369,4.369,0,0,0,2.689,2.414l.891.309-.776.471a8.009,8.009,0,0,1-3.853,1.089A4.2,4.2,0,0,0,0,14.874a10.871,10.871,0,0,0,2.775,1.3,11.994,11.994,0,0,0,9.432-1.089,12.755,12.755,0,0,0,4.788-5.712,15.368,15.368,0,0,0,.978-4.416c0-.677.043-.765.848-1.575a9.57,9.57,0,0,0,1.006-1.134c.144-.28.129-.28-.6-.029-1.222.442-1.395.383-.791-.28A4.293,4.293,0,0,0,19.409.359c0-.044-.216.029-.46.162a7.954,7.954,0,0,1-1.265.5l-.776.25L16.2.786A5.823,5.823,0,0,0,14.981.138,4.845,4.845,0,0,0,12.465.2,4.215,4.215,0,0,0,9.662,4.436Z"/></svg>